<svg xmlns="http://www.w3.org/2000/svg" width="300" height="620" viewBox="0 0 300 620" font-family="-apple-system, Segoe UI, Roboto, Helvetica, Arial, sans-serif">
  <defs><clipPath id="o2"><rect x="12" y="12" width="276" height="596" rx="30"/></clipPath></defs>
  <rect x="6" y="6" width="288" height="608" rx="36" fill="#111827"/>
  <rect x="12" y="12" width="276" height="596" rx="30" fill="#FFFFFF"/>
  <g clip-path="url(#o2)">
    <text x="34" y="42" font-size="13" font-weight="600" fill="#111827">9:41</text>
    <text x="248" y="42" font-size="12" fill="#111827">▤ ▮</text>
    <text x="34" y="90" font-size="22" font-weight="700" fill="#111827">Let's set you up</text>
    <text x="34" y="112" font-size="13" fill="#6B7280">Step 2 of 4</text>

    <text x="34" y="168" font-size="17" font-weight="600" fill="#111827">When should we email</text>
    <text x="34" y="190" font-size="17" font-weight="600" fill="#111827">your daily plan?</text>

    <rect x="34" y="212" width="140" height="46" rx="12" fill="#FFFFFF" stroke="#E5E7EB"/>
    <text x="50" y="240" font-size="14" fill="#111827">⏰  8:00 pm</text>

    <!-- spinner preview -->
    <rect x="34" y="286" width="232" height="150" rx="14" fill="#F9FAFB" stroke="#E5E7EB"/>
    <rect x="46" y="342" width="208" height="38" rx="8" fill="#EAF2FF"/>
    <text x="90" y="330" text-anchor="middle" font-size="13" fill="#9CA3AF">7      59</text>
    <text x="90" y="367" text-anchor="middle" font-size="17" font-weight="700" fill="#111827">8   :   00   pm</text>
    <text x="90" y="404" text-anchor="middle" font-size="13" fill="#9CA3AF">9      01</text>

    <!-- nav -->
    <rect x="34" y="536" width="100" height="46" rx="12" fill="#FFFFFF" stroke="#E5E7EB"/>
    <text x="84" y="564" text-anchor="middle" font-size="15" font-weight="600" fill="#374151">Back</text>
    <rect x="150" y="536" width="116" height="46" rx="12" fill="#2563EB"/>
    <text x="208" y="564" text-anchor="middle" font-size="15" font-weight="600" fill="#FFFFFF">Next</text>
  </g>
</svg>
